<svg  viewBox="0 0 24 24" id="Layer_1" data-name="Layer 1" xmlns="http://www.w3.org/2000/svg"><defs><style>.cls-1{fill:none;stroke:#77d8e9;stroke-miterlimit:10;stroke-width:1.91px;}</style></defs><circle class="cls-1" cx="12" cy="18.7" r="1.91"/><path class="cls-1" d="M9.14,23.48h0A2.87,2.87,0,0,1,12,20.61h0a2.87,2.87,0,0,1,2.86,2.87h0"/><circle class="cls-1" cx="19.64" cy="18.7" r="1.91"/><path class="cls-1" d="M16.77,23.48h0a2.87,2.87,0,0,1,2.87-2.87h0a2.87,2.87,0,0,1,2.86,2.87h0"/><circle class="cls-1" cx="4.36" cy="18.7" r="1.91"/><path class="cls-1" d="M1.5,23.48h0a2.87,2.87,0,0,1,2.86-2.87h0a2.87,2.87,0,0,1,2.87,2.87h0"/><polyline class="cls-1" points="4.36 13.93 4.36 10.11 19.64 10.11 19.64 13.93"/><line class="cls-1" x1="12" y1="13.93" x2="12" y2="7.25"/><circle class="cls-1" cx="12" cy="4.39" r="2.86"/></svg>