<svg width="800px" height="800px" viewBox="0 0 24 24" id="Layer_1" data-name="Layer 1" xmlns="http://www.w3.org/2000/svg"><defs><style>.cls-1{fill:none;stroke:#77d8e9;stroke-miterlimit:10;stroke-width:1.91px;}</style></defs><line class="cls-1" x1="7.23" y1="7.23" x2="7.23" y2="2.45"/><line class="cls-1" x1="16.77" y1="7.23" x2="16.77" y2="2.45"/><path class="cls-1" d="M17.73,22.5H15.29a1.92,1.92,0,0,1-1.82-1.31l-.21-.65a1.32,1.32,0,0,0-1.26-.9h0a1.32,1.32,0,0,0-1.26.9l-.21.65A1.92,1.92,0,0,1,8.71,22.5H6.27a2.86,2.86,0,0,1-2.86-2.86V14.86H20.59v4.78A2.86,2.86,0,0,1,17.73,22.5Z"/><line class="cls-1" x1="23.45" y1="11.05" x2="0.55" y2="11.05"/><path class="cls-1" d="M12,1.5h0a8.59,8.59,0,0,1,8.59,8.59v1a0,0,0,0,1,0,0H3.41a0,0,0,0,1,0,0v-1A8.59,8.59,0,0,1,12,1.5Z"/><line class="cls-1" x1="12" y1="8.18" x2="12" y2="1.5"/></svg>