<svg viewBox="0 0 24 24" id="Layer_1" data-name="Layer 1" xmlns="http://www.w3.org/2000/svg"><defs><style>.cls-1{fill:none;stroke:#77d8e9;stroke-miterlimit:10;stroke-width:1.91px;}</style></defs><path class="cls-1" d="M19.64,9.14A7.64,7.64,0,1,0,6.49,14.41a6.2,6.2,0,0,1,1.69,4.27h7.64a6.07,6.07,0,0,1,1.67-4.24A7.59,7.59,0,0,0,19.64,9.14Z"/><polygon class="cls-1" points="12 8.18 10.09 11.04 12 11.04 12 8.18"/><polygon class="cls-1" points="12 12.96 13.91 10.09 12 10.09 12 12.96"/><path class="cls-1" d="M8.18,18.68h7.64a0,0,0,0,1,0,0v1.91a1.91,1.91,0,0,1-1.91,1.91H10.09a1.91,1.91,0,0,1-1.91-1.91V18.68A0,0,0,0,1,8.18,18.68Z"/><line class="cls-1" x1="0.55" y1="9.14" x2="2.45" y2="9.14"/><line class="cls-1" x1="3.41" y1="1.5" x2="5.32" y2="1.5"/><line class="cls-1" x1="3.41" y1="16.77" x2="5.32" y2="16.77"/><line class="cls-1" x1="23.45" y1="9.14" x2="21.55" y2="9.14"/><line class="cls-1" x1="20.59" y1="16.77" x2="18.68" y2="16.77"/><line class="cls-1" x1="20.59" y1="1.5" x2="18.68" y2="1.5"/></svg>