<svg width="800px" height="800px" viewBox="0 0 24 24" id="Layer_1" data-name="Layer 1" xmlns="http://www.w3.org/2000/svg"><defs><style>.cls-1{fill:none;stroke:#77d8e9;stroke-miterlimit:10;stroke-width:1.91px;}</style></defs><circle class="cls-1" cx="5.32" cy="18.68" r="1.91"/><circle class="cls-1" cx="18.68" cy="18.68" r="1.91"/><polyline class="cls-1" points="20.59 18.68 22.5 18.68 22.5 13.91 22.5 12.96 20.59 7.23 16.77 7.23 16.77 13.91 16.77 18.68"/><line class="cls-1" x1="19.64" y1="13.91" x2="22.5" y2="13.91"/><polyline class="cls-1" points="19.64 3.41 16.77 3.41 16.77 13.91 4.36 13.91 1.5 11.04 1.5 5.32 12.96 5.32 14.86 3.41 16.77 3.41"/><line class="cls-1" x1="9.14" y1="9.14" x2="9.14" y2="13.91"/><line class="cls-1" x1="5.32" y1="9.14" x2="5.32" y2="13.91"/><line class="cls-1" x1="12.95" y1="9.14" x2="12.95" y2="13.91"/><polyline class="cls-1" points="7.23 18.68 16.77 18.68 16.77 13.91 12.96 13.91 9.14 13.91 5.32 13.91 4.36 13.91 1.5 13.91 1.5 18.68 3.41 18.68"/></svg>